<svg width="247" height="259" viewBox="0 0 247 259" fill="none" xmlns="http://www.w3.org/2000/svg">
    <circle cx="123.5" cy="129.5" r="54.5" fill="#007FEC"/>
    <path fill-rule="evenodd" clip-rule="evenodd" d="M154.616 32.7183C134.547 21.9866 110.297 22.3356 90.5 33.7654L57.0914 53.0538C36.6709 64.8436 24.0914 86.632 24.0914 110.212V148.788C24.0914 172.368 36.6709 194.156 57.0914 205.946L90.5 225.235C110.92 237.024 136.08 237.024 156.5 225.235L189.909 205.946C210.329 194.156 222.909 172.368 222.909 148.788V110.212C222.909 93.106 216.289 76.9431 204.857 64.8562C211.603 59.9281 216.348 52.424 217.644 43.7914C236.072 60.6422 246.909 84.6554 246.909 110.212V148.788C246.909 180.942 229.755 210.654 201.909 226.731L168.5 246.019C140.654 262.096 106.346 262.096 78.5 246.019L45.0914 226.731C17.2453 210.654 0.0913696 180.942 0.0913696 148.788V110.212C0.0913696 78.0576 17.2453 48.3462 45.0914 32.2692L78.5 12.9808C106.138 -2.97629 140.143 -3.09529 167.876 12.6237C161.141 17.2603 156.27 24.4096 154.616 32.7183Z" fill="#007FEC"/>
    <circle cx="186" cy="39" r="21" fill="#007FEC"/>
</svg>