<svg width="925" height="272" viewBox="0 0 925 272" fill="none" xmlns="http://www.w3.org/2000/svg">
<path fill-rule="evenodd" clip-rule="evenodd" d="M153.2 36.044L152.11 35.4145C133.546 24.6965 110.674 24.6965 92.1096 35.4144L50 59.7264C31.4359 70.4444 20 90.252 20 111.688V160.312C20 181.748 31.4359 201.555 50 212.273L92.1096 236.585C110.674 247.303 133.546 247.303 152.11 236.585L194.219 212.273C212.783 201.555 224.219 181.748 224.219 160.312V111.688C224.219 95.8389 217.968 80.8799 207.205 69.827C212.469 65.4222 216.359 59.4308 218.141 52.5882C234.561 67.5697 244.219 88.9412 244.219 111.688V160.312C244.219 188.893 228.971 215.303 204.219 229.594L162.11 253.906C137.357 268.197 106.862 268.197 82.1096 253.906L40 229.594C15.2479 215.303 0 188.893 0 160.312V111.688C0 83.1067 15.2479 56.6965 40 42.4059L82.1096 18.0939C106.862 3.80332 137.357 3.80332 162.11 18.0939L163.607 18.9582C158.565 23.392 154.866 29.3171 153.2 36.044Z" fill="url(#paint0_linear_1024_182)"/>
<path d="M63.1094 136.124C63.1094 103.815 89.3007 77.624 121.609 77.624V77.624C153.918 77.624 180.109 103.815 180.109 136.124V136.124C180.109 168.433 153.918 194.624 121.609 194.624V194.624C89.3007 194.624 63.1094 168.433 63.1094 136.124V136.124Z" fill="url(#paint1_linear_1024_182)"/>
<rect x="163.219" y="20.624" width="45" height="45" rx="22.5" fill="url(#paint2_linear_1024_182)"/>
<path d="M388.251 62.824V104.168H416.539V127.288H388.251V195.288C388.251 201.453 389.611 205.987 392.331 208.888C395.232 211.789 399.947 213.24 406.475 213.24C410.283 213.24 413.637 212.877 416.539 212.152V233.912C412.187 235.544 406.384 236.36 399.131 236.36C387.888 236.36 379.003 233.096 372.475 226.568C365.947 220.04 362.683 210.883 362.683 199.096V127.288H337.659V104.168H344.731C351.44 104.168 356.427 102.355 359.691 98.728C363.136 94.92 364.859 90.024 364.859 84.04V62.824H388.251ZM430.266 199.912C430.266 188.669 433.893 179.693 441.146 172.984C448.4 166.093 458.01 161.832 469.978 160.2L505.338 155.032C512.048 154.125 515.402 150.861 515.402 145.24C515.402 138.349 513.045 132.728 508.33 128.376C503.616 124.024 496.544 121.848 487.114 121.848C478.41 121.848 471.52 124.296 466.442 129.192C461.365 133.907 458.373 140.253 457.466 148.232L432.986 142.52C434.256 130.008 439.968 119.853 450.122 112.056C460.277 104.077 472.426 100.088 486.57 100.088C505.066 100.088 518.757 104.621 527.642 113.688C536.528 122.573 540.97 133.997 540.97 147.96V213.512C540.97 221.309 541.514 228.472 542.602 235H517.578C516.672 229.56 516.218 223.667 516.218 217.32C512.592 223.123 507.242 228.2 500.17 232.552C493.28 236.904 484.576 239.08 474.058 239.08C461.184 239.08 450.666 235.272 442.506 227.656C434.346 219.859 430.266 210.611 430.266 199.912ZM477.594 217.592C489.018 217.592 498.176 214.509 505.066 208.344C511.957 202.179 515.402 192.387 515.402 178.968V172.984L475.418 178.968C469.616 179.875 464.992 181.96 461.546 185.224C458.101 188.488 456.378 192.931 456.378 198.552C456.378 203.629 458.282 208.072 462.09 211.88C466.08 215.688 471.248 217.592 477.594 217.592ZM593.857 235H568.561V104.168H593.857V235ZM568.017 67.72C564.572 64.0933 562.849 59.7413 562.849 54.664C562.849 49.5867 564.572 45.2347 568.017 41.608C571.644 37.9813 575.996 36.168 581.073 36.168C586.151 36.168 590.503 37.9813 594.129 41.608C597.756 45.0533 599.569 49.4053 599.569 54.664C599.569 59.7413 597.756 64.0933 594.129 67.72C590.503 71.1653 586.151 72.888 581.073 72.888C575.996 72.888 571.644 71.1653 568.017 67.72ZM650.686 235H625.118V38.072H650.686V235ZM766.837 219.224C763.391 225.752 758.133 230.739 751.061 234.184C743.989 237.448 736.373 239.08 728.213 239.08C713.343 239.08 701.466 234.184 692.581 224.392C683.695 214.419 679.253 201.816 679.253 186.584V104.168H704.821V182.776C704.821 192.568 707.178 200.637 711.893 206.984C716.789 213.331 724.314 216.504 734.469 216.504C744.623 216.504 752.33 213.512 757.589 207.528C762.847 201.363 765.477 193.203 765.477 183.048V104.168H791.045V210.792C791.045 219.315 791.498 227.384 792.405 235H767.925C767.199 231.011 766.837 225.752 766.837 219.224ZM810.195 201L833.315 192.84C834.222 199.912 837.304 205.805 842.563 210.52C847.822 215.053 854.894 217.32 863.779 217.32C870.67 217.32 876.11 215.688 880.099 212.424C884.088 208.979 886.083 204.808 886.083 199.912C886.083 191.208 880.462 185.587 869.219 183.048L846.915 178.152C836.76 175.976 828.782 171.624 822.979 165.096C817.176 158.568 814.275 150.68 814.275 141.432C814.275 130.189 818.808 120.488 827.875 112.328C837.123 104.168 848.094 100.088 860.787 100.088C869.128 100.088 876.563 101.357 883.091 103.896C889.619 106.253 894.696 109.427 898.323 113.416C901.95 117.405 904.67 121.123 906.483 124.568C908.296 128.013 909.656 131.549 910.563 135.176L887.987 143.608C887.624 141.432 886.99 139.347 886.083 137.352C885.176 135.176 883.726 132.819 881.731 130.28C879.918 127.741 877.198 125.747 873.571 124.296C869.944 122.664 865.683 121.848 860.787 121.848C854.44 121.848 849.182 123.571 845.011 127.016C841.022 130.461 839.027 134.541 839.027 139.256C839.027 147.597 844.014 152.856 853.987 155.032L875.203 159.656C886.808 162.195 895.694 166.909 901.859 173.8C908.206 180.509 911.379 188.76 911.379 198.552C911.379 208.888 907.118 218.227 898.595 226.568C890.254 234.909 878.558 239.08 863.507 239.08C847.368 239.08 834.766 235.091 825.699 227.112C816.632 218.952 811.464 210.248 810.195 201Z" fill="white"/>
<defs>
<linearGradient id="paint0_linear_1024_182" x1="122.11" y1="7.37598" x2="122.11" y2="264.624" gradientUnits="userSpaceOnUse">
<stop stop-color="#0DCAFE"/>
<stop offset="1" stop-color="#00A5E9"/>
</linearGradient>
<linearGradient id="paint1_linear_1024_182" x1="121.609" y1="77.624" x2="121.609" y2="194.624" gradientUnits="userSpaceOnUse">
<stop stop-color="#0DCAFE"/>
<stop offset="1" stop-color="#00A5E9"/>
</linearGradient>
<linearGradient id="paint2_linear_1024_182" x1="185.719" y1="20.624" x2="185.719" y2="65.624" gradientUnits="userSpaceOnUse">
<stop stop-color="#0DCAFE"/>
<stop offset="1" stop-color="#00A5E9"/>
</linearGradient>
</defs>
</svg>
